<svg stroke="rgb(184, 163, 192)" version="1.1" xmlns="http://www.w3.org/2000/svg" viewBox="0 0 512 512" xmlns:xlink="http://www.w3.org/1999/xlink" enable-background="new 0 0 512 512">
    <defs>
        <linearGradient id="svg_32" x1="0" x2="1" y1="0" y2="0">
            <stop offset="0" stop-color="#7f007f" stop-opacity="0.99219"/>
            <stop offset="1" stop-color="#ff0000" stop-opacity="0.98438"/>
        </linearGradient>
    </defs>
    <g>
        <rect fill="#666666" height="404.72434" id="svg_19" stroke="#666666" stroke-width="5" width="22.65248" x="309.94157" y="11.06327"/>
        <path d="m335.33365,196.99184l0,-194.20218c-159.13923,-11.06497 -168.61624,51.85862 -234.86409,78.01211c-66.24785,26.15349 -83.52167,-23.23922 -78.00946,5.4175c5.5122,28.65676 11.64115,97.10414 96.39428,119.82029c84.75313,22.71615 113.71019,-49.95621 216.47928,-9.04777l0,0.00003l-0.00001,0.00001l0,0.00001z" fill="url(#svg_32)" id="svg_23" stroke="#000000" stroke-opacity="0" stroke-width="5"/>
        <path d="m246.33255,393.37885l123.32547,-1.21304a12.33255,13.04015 0 0 1 12.33255,14.25319l0,44.27587a12.33255,13.04015 0 0 1 -12.33255,13.04015l-123.32547,0a12.33255,13.04015 0 0 1 -12.33255,-13.04015l0,-44.27587a12.33255,13.04015 0 0 1 12.33255,-13.04015z" fill="black" id="svg_3"/>
        <path d="m75.38421,437.27606l382.76552,0a13.11725,13.86987 0 0 1 13.11725,13.86987l0,45.80284a13.11725,13.86987 0 0 1 -13.11725,13.86987l-382.76552,0a13.11725,13.86987 0 0 1 -13.11725,-13.86987l0,-45.80284a13.11725,13.86987 0 0 1 13.11725,-13.86987z" fill="black" id="svg_5"/>
    </g>
</svg>