<svg version="1.1" xmlns="http://www.w3.org/2000/svg" viewBox="0 0 512 512" xmlns:xlink="http://www.w3.org/1999/xlink" enable-background="new 0 0 512 512">
    <g>
        <path fill="#000000" d="m412.313,122.6255l-22.625,-22.625l-32,32l-9.375,9.375l-20.688,-20.688c-12.484,-12.5 -32.766,-12.5 -45.25,0l-16,16c-1.261,1.261 -2.304,2.648 -3.31,4.051c-21.739,-8.561 -45.324,-13.426 -70.065,-13.426c-105.867,0 -192,86.133 -192,192s86.133,192 192,192s192,-86.133 192,-192c0,-24.741 -4.864,-48.327 -13.426,-70.065c1.402,-1.007 2.79,-2.049 4.051,-3.31l16,-16c12.5,-12.492 12.5,-32.758 0,-45.25l-20.688,-20.688l9.375,-9.375l32.001,-31.999z"/>
        <path fill="#000000" d="m419.40426,64.21891l0,-64l-32,0l0,64l32,0z" />
        <path fill="#000000" d="m366.65576,85.36659l0,-64l-32,0l0,64l32,0z" transform="matrix(1, 0, 0, 1, 0, 0) rotate(-45, 350.655, 53.365)"/>
        <path fill="#000000" d="m474.19285,86.74483l0,-64l-32,0l0,64l32,0z" transform="rotate(45, 458.192, 54.7463)"/>
        <path fill="#000000" d="m474.12607,193.7089l0,-64l-32,0l0,64l32,0z" transform="matrix(1, 0, 0, 1, 0, 0) rotate(135, 458.126, 161.708)"/>
        <path fill="#000000" d="m495.7499,140.28829l0,-64l-32,0l0,64l32,0z" transform="rotate(90, 479.75, 108.288)"/>
    </g>
</svg>