<svg version="1.1" xmlns="http://www.w3.org/2000/svg" viewBox="0 0 512 512" xmlns:xlink="http://www.w3.org/1999/xlink" enable-background="new 0 0 512 512">
    <defs>
        <linearGradient id="svg_32" x1="0" x2="1" y1="0" y2="0">
            <stop offset="0" stop-color="#7f007f" stop-opacity="0.99219"/>
            <stop offset="1" stop-color="#ff0000" stop-opacity="0.98438"/>
        </linearGradient>
    </defs>
    <g>
        <rect fill="#666666" height="395.72434" id="svg_19" stroke="#666666" stroke-width="5" width="64.65252" x="307.94162" y="15.06327"/>
        <path d="m375.33425,249.36172l0,-246.22554c-188.04354,-14.02908 -199.24185,65.75064 -277.52223,98.91019c-78.28038,33.15955 -98.69163,-29.4646 -92.17824,6.86875c6.51338,36.3334 13.75552,123.11664 113.90228,151.91804c100.14676,28.80141 134.36326,-63.3386 255.79821,-11.47151l0,0.00004l-0.00001,0.00001l0,0.00001z" fill="url(#svg_32)" id="svg_23" stroke="#000000" stroke-opacity="0" stroke-width="5"/>
        <path d="m196.82912,366.21055l218.29088,-2.04354a21.82909,21.96798 0 0 1 21.82909,24.01151l0,74.58896a21.82909,21.96798 0 0 1 -21.82909,21.96798l-218.29088,0a21.82909,21.96798 0 0 1 -21.82909,-21.96798l0,-74.58896a21.82909,21.96798 0 0 1 21.82909,-21.96798z" fill="black" id="svg_3" stroke="#000000"/>
        <path d="m76.31438,431.27596l409.90536,0a14.04732,15.00129 0 0 1 14.04732,15.00129l0,49.53916a14.04732,15.00129 0 0 1 -14.04732,15.00129l-409.90536,0a14.04732,15.00129 0 0 1 -14.04732,-15.00129l0,-49.53916a14.04732,15.00129 0 0 1 14.04732,-15.00129z" fill="black" id="svg_5" stroke="#000000"/>
    </g>
</svg>