<svg version="1.1" xmlns="http://www.w3.org/2000/svg" viewBox="0 0 512 512" xmlns:xlink="http://www.w3.org/1999/xlink" enable-background="new 0 0 512 512">
    <defs>
        <linearGradient id="gradient">
            <stop offset="0" stop-color="#7f007f"/>
            <stop offset="1" stop-color="#ff0000"/>
        </linearGradient>
    </defs>
    <g>
        <path fill="#666666" d="m305,375.83678l70,-5.83678l0,-120l-29,-29.7623l-41,-0.2377l0,155.83678z"/>
        <path fill="black" d="m196.82912,366.21055l218.29088,-2.04354a21.82909,21.96798 0 0 1 21.82909,24.01151l0,74.58896a21.82909,21.96798 0 0 1 -21.82909,21.96798l-218.29088,0a21.82909,21.96798 0 0 1 -21.82909,-21.96798l0,-74.58896a21.82909,21.96798 0 0 1 21.82909,-21.96798l0,0.00001z"/>
        <path fill="black" d="m76.31438,431.27596l409.90536,0a14.04732,15.00129 0 0 1 14.04732,15.00129l0,49.53916a14.04732,15.00129 0 0 1 -14.04732,15.00129l-409.90536,0a14.04732,15.00129 0 0 1 -14.04732,-15.00129l0,-49.53916a14.04732,15.00129 0 0 1 14.04732,-15.00129z"/>
        <path fill="url(#gradient)" d="m375,3.13618c-188.04354,-14.02908 -198.9076,65.75064 -277.18798,98.91019c-78.28038,33.15955 -98.69163,-29.4646 -92.17824,6.86875c6.51338,36.3334 13.75552,123.11664 113.90228,151.91804c100.14676,28.80141 134.02899,-62.70025 255.46394,-10.83316l0,-246.86382z"/>
    </g>
</svg>